<mxfile host="app.diagrams.net" agent="Mozilla/5.0 (Windows NT 10.0; Win64; x64) AppleWebKit/537.36 (KHTML, like Gecko) Chrome/122.0.0.0 Safari/537.36" version="27.1.5">
  <diagram name="第 1 页" id="uiGfr1aLA57x_58X-ihM">
    <mxGraphModel dx="1442" dy="971" grid="0" gridSize="10" guides="1" tooltips="1" connect="1" arrows="1" fold="1" page="0" pageScale="1" pageWidth="827" pageHeight="1169" math="0" shadow="0">
      <root>
        <mxCell id="0" />
        <mxCell id="1" parent="0" />
        <mxCell id="U3tRJXVRXcSLxoD6gg19-5" value="&lt;font style=&quot;font-size: 16px;&quot;&gt;社团组织者&lt;/font&gt;" style="shape=umlActor;html=1;verticalLabelPosition=bottom;verticalAlign=top;align=center;fontFamily=Architects Daughter;fontSource=https%3A%2F%2Ffonts.googleapis.com%2Fcss%3Ffamily%3DArchitects%2BDaughter;" parent="1" vertex="1">
          <mxGeometry x="370" y="-39.5" width="30" height="60" as="geometry" />
        </mxCell>
        <mxCell id="U3tRJXVRXcSLxoD6gg19-7" value="&lt;font style=&quot;font-size: 16px;&quot;&gt;学校管理员&lt;/font&gt;" style="shape=umlActor;html=1;verticalLabelPosition=bottom;verticalAlign=top;align=center;fontFamily=Architects Daughter;fontSource=https%3A%2F%2Ffonts.googleapis.com%2Fcss%3Ffamily%3DArchitects%2BDaughter;" parent="1" vertex="1">
          <mxGeometry x="370" y="154" width="30" height="60" as="geometry" />
        </mxCell>
        <mxCell id="U3tRJXVRXcSLxoD6gg19-10" value="" style="rounded=0;whiteSpace=wrap;html=1;fontFamily=Architects Daughter;fontSource=https%3A%2F%2Ffonts.googleapis.com%2Fcss%3Ffamily%3DArchitects%2BDaughter;" parent="1" vertex="1">
          <mxGeometry x="-82" y="-135" width="359" height="470" as="geometry" />
        </mxCell>
        <mxCell id="U3tRJXVRXcSLxoD6gg19-11" value="高校学生社团活动管理系统" style="text;strokeColor=none;fillColor=none;html=1;align=center;verticalAlign=middle;whiteSpace=wrap;rounded=0;fontSize=20;fontFamily=Architects Daughter;fontSource=https%3A%2F%2Ffonts.googleapis.com%2Fcss%3Ffamily%3DArchitects%2BDaughter;" parent="1" vertex="1">
          <mxGeometry x="-38.5" y="-128" width="286" height="30" as="geometry" />
        </mxCell>
        <mxCell id="U3tRJXVRXcSLxoD6gg19-12" value="&lt;font style=&quot;font-size: 16px;&quot;&gt;用户登录&lt;/font&gt;" style="ellipse;whiteSpace=wrap;html=1;fontFamily=Architects Daughter;fontSource=https%3A%2F%2Ffonts.googleapis.com%2Fcss%3Ffamily%3DArchitects%2BDaughter;" parent="1" vertex="1">
          <mxGeometry x="15" y="-56" width="155" height="43" as="geometry" />
        </mxCell>
        <mxCell id="U3tRJXVRXcSLxoD6gg19-13" value="&lt;font style=&quot;font-size: 16px;&quot;&gt;用户信息管理&lt;/font&gt;" style="ellipse;whiteSpace=wrap;html=1;fontFamily=Architects Daughter;fontSource=https%3A%2F%2Ffonts.googleapis.com%2Fcss%3Ffamily%3DArchitects%2BDaughter;" parent="1" vertex="1">
          <mxGeometry x="15" y="20.5" width="155" height="43" as="geometry" />
        </mxCell>
        <mxCell id="U3tRJXVRXcSLxoD6gg19-14" value="&lt;font style=&quot;font-size: 16px;&quot;&gt;社团信息管理&lt;/font&gt;" style="ellipse;whiteSpace=wrap;html=1;fontFamily=Architects Daughter;fontSource=https%3A%2F%2Ffonts.googleapis.com%2Fcss%3Ffamily%3DArchitects%2BDaughter;" parent="1" vertex="1">
          <mxGeometry x="15" y="99" width="155" height="43" as="geometry" />
        </mxCell>
        <mxCell id="U3tRJXVRXcSLxoD6gg19-15" value="&lt;font style=&quot;font-size: 16px;&quot;&gt;社团活动管理&lt;/font&gt;" style="ellipse;whiteSpace=wrap;html=1;fontFamily=Architects Daughter;fontSource=https%3A%2F%2Ffonts.googleapis.com%2Fcss%3Ffamily%3DArchitects%2BDaughter;" parent="1" vertex="1">
          <mxGeometry x="15" y="174" width="155" height="43" as="geometry" />
        </mxCell>
        <mxCell id="U3tRJXVRXcSLxoD6gg19-16" value="&lt;font style=&quot;font-size: 16px;&quot;&gt;公告信息管理&lt;/font&gt;" style="ellipse;whiteSpace=wrap;html=1;fontFamily=Architects Daughter;fontSource=https%3A%2F%2Ffonts.googleapis.com%2Fcss%3Ffamily%3DArchitects%2BDaughter;" parent="1" vertex="1">
          <mxGeometry x="20" y="249" width="155" height="43" as="geometry" />
        </mxCell>
        <mxCell id="U3tRJXVRXcSLxoD6gg19-17" value="&lt;font style=&quot;font-size: 16px;&quot;&gt;学生&lt;/font&gt;" style="shape=umlActor;html=1;verticalLabelPosition=bottom;verticalAlign=top;align=center;fontFamily=Architects Daughter;fontSource=https%3A%2F%2Ffonts.googleapis.com%2Fcss%3Ffamily%3DArchitects%2BDaughter;" parent="1" vertex="1">
          <mxGeometry x="-205" y="20.5" width="30" height="60" as="geometry" />
        </mxCell>
        <mxCell id="U3tRJXVRXcSLxoD6gg19-23" value="" style="endArrow=none;html=1;rounded=0;fontFamily=Architects Daughter;fontSource=https%3A%2F%2Ffonts.googleapis.com%2Fcss%3Ffamily%3DArchitects%2BDaughter;fontSize=16;startSize=14;endSize=14;sourcePerimeterSpacing=8;targetPerimeterSpacing=8;curved=1;exitX=1;exitY=0.3333333333333333;exitDx=0;exitDy=0;exitPerimeter=0;entryX=0;entryY=0.5;entryDx=0;entryDy=0;" parent="1" source="U3tRJXVRXcSLxoD6gg19-17" target="U3tRJXVRXcSLxoD6gg19-12" edge="1">
          <mxGeometry width="50" height="50" relative="1" as="geometry">
            <mxPoint x="-165" y="-25" as="sourcePoint" />
            <mxPoint x="6" y="-34" as="targetPoint" />
          </mxGeometry>
        </mxCell>
        <mxCell id="U3tRJXVRXcSLxoD6gg19-26" value="" style="endArrow=none;html=1;rounded=0;fontFamily=Architects Daughter;fontSource=https%3A%2F%2Ffonts.googleapis.com%2Fcss%3Ffamily%3DArchitects%2BDaughter;fontSize=16;startSize=14;endSize=14;sourcePerimeterSpacing=8;targetPerimeterSpacing=8;curved=1;entryX=0;entryY=0.3333333333333333;entryDx=0;entryDy=0;entryPerimeter=0;exitX=1;exitY=0.5;exitDx=0;exitDy=0;" parent="1" source="U3tRJXVRXcSLxoD6gg19-14" target="U3tRJXVRXcSLxoD6gg19-5" edge="1">
          <mxGeometry width="50" height="50" relative="1" as="geometry">
            <mxPoint x="-94" y="108" as="sourcePoint" />
            <mxPoint x="-44" y="58" as="targetPoint" />
          </mxGeometry>
        </mxCell>
        <mxCell id="U3tRJXVRXcSLxoD6gg19-27" value="" style="endArrow=none;html=1;rounded=0;fontFamily=Architects Daughter;fontSource=https%3A%2F%2Ffonts.googleapis.com%2Fcss%3Ffamily%3DArchitects%2BDaughter;fontSize=16;startSize=14;endSize=14;sourcePerimeterSpacing=8;targetPerimeterSpacing=8;curved=1;exitX=0;exitY=0.3333333333333333;exitDx=0;exitDy=0;exitPerimeter=0;entryX=0.997;entryY=0.511;entryDx=0;entryDy=0;entryPerimeter=0;" parent="1" source="U3tRJXVRXcSLxoD6gg19-7" target="U3tRJXVRXcSLxoD6gg19-14" edge="1">
          <mxGeometry width="50" height="50" relative="1" as="geometry">
            <mxPoint x="-94" y="108" as="sourcePoint" />
            <mxPoint x="172" y="121" as="targetPoint" />
          </mxGeometry>
        </mxCell>
        <mxCell id="U3tRJXVRXcSLxoD6gg19-30" value="" style="endArrow=none;html=1;rounded=0;fontFamily=Architects Daughter;fontSource=https%3A%2F%2Ffonts.googleapis.com%2Fcss%3Ffamily%3DArchitects%2BDaughter;fontSize=16;startSize=14;endSize=14;sourcePerimeterSpacing=8;targetPerimeterSpacing=8;curved=1;entryX=0;entryY=0.3333333333333333;entryDx=0;entryDy=0;entryPerimeter=0;exitX=1;exitY=0.5;exitDx=0;exitDy=0;" parent="1" source="U3tRJXVRXcSLxoD6gg19-16" target="U3tRJXVRXcSLxoD6gg19-7" edge="1">
          <mxGeometry width="50" height="50" relative="1" as="geometry">
            <mxPoint x="-15" y="172" as="sourcePoint" />
            <mxPoint x="35" y="122" as="targetPoint" />
          </mxGeometry>
        </mxCell>
        <mxCell id="U3tRJXVRXcSLxoD6gg19-32" value="" style="endArrow=none;html=1;rounded=0;fontFamily=Architects Daughter;fontSource=https%3A%2F%2Ffonts.googleapis.com%2Fcss%3Ffamily%3DArchitects%2BDaughter;fontSize=16;startSize=14;endSize=14;sourcePerimeterSpacing=8;targetPerimeterSpacing=8;curved=1;entryX=0;entryY=0.3333333333333333;entryDx=0;entryDy=0;entryPerimeter=0;exitX=1;exitY=0.5;exitDx=0;exitDy=0;" parent="1" source="U3tRJXVRXcSLxoD6gg19-15" target="U3tRJXVRXcSLxoD6gg19-7" edge="1">
          <mxGeometry width="50" height="50" relative="1" as="geometry">
            <mxPoint x="171" y="197" as="sourcePoint" />
            <mxPoint x="190" y="180" as="targetPoint" />
          </mxGeometry>
        </mxCell>
        <mxCell id="U3tRJXVRXcSLxoD6gg19-33" value="" style="endArrow=none;html=1;rounded=0;fontFamily=Architects Daughter;fontSource=https%3A%2F%2Ffonts.googleapis.com%2Fcss%3Ffamily%3DArchitects%2BDaughter;fontSize=16;startSize=14;endSize=14;sourcePerimeterSpacing=8;targetPerimeterSpacing=8;curved=1;entryX=1;entryY=0.3333333333333333;entryDx=0;entryDy=0;entryPerimeter=0;exitX=0;exitY=0.5;exitDx=0;exitDy=0;" parent="1" source="U3tRJXVRXcSLxoD6gg19-15" target="U3tRJXVRXcSLxoD6gg19-17" edge="1">
          <mxGeometry width="50" height="50" relative="1" as="geometry">
            <mxPoint x="4" y="167" as="sourcePoint" />
            <mxPoint x="54" y="117" as="targetPoint" />
          </mxGeometry>
        </mxCell>
        <mxCell id="U3tRJXVRXcSLxoD6gg19-39" value="" style="endArrow=none;html=1;rounded=0;fontFamily=Architects Daughter;fontSource=https%3A%2F%2Ffonts.googleapis.com%2Fcss%3Ffamily%3DArchitects%2BDaughter;fontSize=16;startSize=14;endSize=14;sourcePerimeterSpacing=8;targetPerimeterSpacing=8;curved=1;entryX=0;entryY=0.3333333333333333;entryDx=0;entryDy=0;entryPerimeter=0;exitX=1;exitY=0.5;exitDx=0;exitDy=0;" parent="1" source="U3tRJXVRXcSLxoD6gg19-15" target="U3tRJXVRXcSLxoD6gg19-5" edge="1">
          <mxGeometry width="50" height="50" relative="1" as="geometry">
            <mxPoint x="171" y="204" as="sourcePoint" />
            <mxPoint x="256" y="-9" as="targetPoint" />
          </mxGeometry>
        </mxCell>
        <mxCell id="a2E3nPqMaueEZvwX1clp-2" value="" style="endArrow=none;html=1;rounded=0;entryX=0;entryY=0.5;entryDx=0;entryDy=0;exitX=1;exitY=0.3333333333333333;exitDx=0;exitDy=0;exitPerimeter=0;" edge="1" parent="1" source="U3tRJXVRXcSLxoD6gg19-17" target="U3tRJXVRXcSLxoD6gg19-16">
          <mxGeometry width="50" height="50" relative="1" as="geometry">
            <mxPoint x="-333" y="236" as="sourcePoint" />
            <mxPoint x="-283" y="186" as="targetPoint" />
          </mxGeometry>
        </mxCell>
        <mxCell id="a2E3nPqMaueEZvwX1clp-3" value="" style="endArrow=none;html=1;rounded=0;entryX=0;entryY=0.3333333333333333;entryDx=0;entryDy=0;entryPerimeter=0;exitX=1;exitY=0.5;exitDx=0;exitDy=0;" edge="1" parent="1" source="U3tRJXVRXcSLxoD6gg19-12" target="U3tRJXVRXcSLxoD6gg19-5">
          <mxGeometry width="50" height="50" relative="1" as="geometry">
            <mxPoint x="224" y="-2" as="sourcePoint" />
            <mxPoint x="274" y="-52" as="targetPoint" />
          </mxGeometry>
        </mxCell>
        <mxCell id="a2E3nPqMaueEZvwX1clp-4" value="" style="endArrow=none;html=1;rounded=0;entryX=0;entryY=0.3333333333333333;entryDx=0;entryDy=0;entryPerimeter=0;exitX=1;exitY=0.5;exitDx=0;exitDy=0;" edge="1" parent="1" source="U3tRJXVRXcSLxoD6gg19-16" target="U3tRJXVRXcSLxoD6gg19-5">
          <mxGeometry width="50" height="50" relative="1" as="geometry">
            <mxPoint x="337" y="163" as="sourcePoint" />
            <mxPoint x="387" y="113" as="targetPoint" />
          </mxGeometry>
        </mxCell>
        <mxCell id="a2E3nPqMaueEZvwX1clp-5" value="" style="endArrow=none;html=1;rounded=0;entryX=0;entryY=0.3333333333333333;entryDx=0;entryDy=0;entryPerimeter=0;exitX=1;exitY=0.5;exitDx=0;exitDy=0;" edge="1" parent="1" source="U3tRJXVRXcSLxoD6gg19-13" target="U3tRJXVRXcSLxoD6gg19-7">
          <mxGeometry width="50" height="50" relative="1" as="geometry">
            <mxPoint x="487" y="162" as="sourcePoint" />
            <mxPoint x="537" y="112" as="targetPoint" />
          </mxGeometry>
        </mxCell>
        <mxCell id="a2E3nPqMaueEZvwX1clp-6" value="" style="endArrow=none;html=1;rounded=0;entryX=1;entryY=0.5;entryDx=0;entryDy=0;exitX=0;exitY=0.3333333333333333;exitDx=0;exitDy=0;exitPerimeter=0;" edge="1" parent="1" source="U3tRJXVRXcSLxoD6gg19-7" target="U3tRJXVRXcSLxoD6gg19-12">
          <mxGeometry width="50" height="50" relative="1" as="geometry">
            <mxPoint x="433" y="131" as="sourcePoint" />
            <mxPoint x="509" y="98" as="targetPoint" />
          </mxGeometry>
        </mxCell>
      </root>
    </mxGraphModel>
  </diagram>
</mxfile>
